<svg width="599" height="110" viewBox="0 0 599 110" fill="none" xmlns="http://www.w3.org/2000/svg">
<g filter="url(#filter0_ii_3_3)">
<path d="M463.667 5.8C456.733 12.2 447.533 29.2667 440.333 49.1333C434.733 64.4667 429.533 73.4 422.2 80.3333C417.667 84.4667 417.4 84.6 419.4 81.4C423.933 74.0667 421.4 65.9333 412.6 59.8C401.8 52.3333 402.733 43 414.467 43C419 43 420.2 46.8667 416.6 49.8C413.133 52.6 412.867 54.4667 415.933 55.5333C419 56.7333 424.867 52.2 425.4 48.0667C426.733 37.1333 402.733 37 397.8 47.9333C394.867 54.3333 396.067 58.7333 402.2 65.4C410.067 73.6667 411.8 78.3333 409 82.6C405.8 87.2667 401.133 89.1333 396.867 87.1333C393.667 85.6667 393.4 85.1333 394.2 80.2C395 75 395 74.8667 391.4 75.2667C388.733 75.5333 387.4 76.7333 386.467 79.4C384.733 84.0667 386.333 86.8667 392.467 90.0667C402.067 95.1333 418.6 90.7333 426.867 80.7333L431.133 75.6667L429 80.8667C425.933 88.7333 426.333 89.6667 432.2 89.6667C437.267 89.6667 437.4 89.6667 440.333 81.2667C441.933 76.7333 444.6 69.6667 446.067 65.6667C449.533 56.8667 458.733 47 463.667 47C467.933 47 467.933 48.6 463.133 62.0667C458.333 75.9333 457.267 81.8 458.867 86.0667C461.8 93.8 471.667 91 480.333 80.0667C484.333 75 485.667 74.0667 485.667 75.9333C485.667 85.6667 492.867 91.8 502.6 90.4667C512.2 89.1333 517.8 84.7333 525.133 72.6C525.267 72.3333 526.733 72.8667 528.333 73.6667C530.333 74.7333 532.333 74.8667 535.133 73.8C539.533 72.3333 539.8 72.8667 537.133 79.1333C532.867 89.6667 532.867 89.6667 539.267 89.6667H545.133L548.2 79.9333C554.733 59.8 560.733 49.8 568.2 47.2667C575.4 44.7333 575.667 46.8667 570.467 61.9333C565.267 77.2667 564.467 85.5333 567.8 89C573.533 94.7333 587.8 83.6667 596.6 66.6C597.933 63.6667 598.733 61 598.2 60.6C597.667 60.0667 597 60.3333 596.733 61.2667C596.467 62.0667 593.933 65.9333 591.267 69.8C585.8 77.5333 579.933 81.8 577.8 79.6667C576.2 78.0667 578.333 69.2667 582.867 57.9333C586.733 48.0667 586.6 43.2667 582.2 41.6667C577.8 39.9333 570.733 41.8 563.933 46.4667C559.4 49.5333 558.867 49.6667 559 47.4C559.533 42.3333 559 41.6667 553.933 41.6667H549L547.4 49.9333C544.733 63.5333 534.733 74.4667 529.267 69.8C527.667 68.6 527.533 67.2667 528.6 63.2667C533 47.5333 522.2 36.7333 507.8 42.2C500.333 45.1333 494.333 51.1333 489.533 60.7333C484.733 70.0667 475.667 80.3333 472.2 80.3333C468.467 80.3333 469 75.4 474.333 61.1333C476.867 54.2 479 47.5333 479 46.0667C479 39.9333 472.733 38.7333 463.4 43C460.2 44.3333 457.667 45.2667 457.667 44.8667C457.667 44.4667 460.2 41.2667 463.4 37.5333C470.333 29.4 478.6 15.9333 480.6 9.4C482.467 3.13334 480.467 0.333336 474.2 0.333336C470.733 0.333336 468.2 1.66667 463.667 5.8ZM477.667 4.86667C477.667 8.6 466.867 28.0667 459.667 36.8667C455.667 41.9333 452.333 45.4 452.333 44.7333C452.333 40.2 465.267 13.2667 470.333 7.13334C474.067 2.86667 477.667 1.66667 477.667 4.86667ZM522.2 47.8C525 50.6 524.867 51.9333 521.533 53C517 54.4667 515.667 59.2667 518.333 64.8667C520.6 69.5333 520.6 69.6667 517 75.6667C511.4 85.2667 502.333 89.2667 498.733 83.8C496.6 80.7333 497.8 71.4 501.133 64.3333C508.333 48.7333 516.733 42.2 522.2 47.8Z" fill="#0864FF"/>
<path d="M33.6666 8.06667C29 10.3333 23 17.8 23 21.4C23 22.7333 24.0666 22.3333 26.4666 19.9333C31.2666 15.1333 43.1333 10.8667 54.6 10.0667C67.9333 9 69.1333 9.66667 63.8 15.6667C58.8666 21 51.8 34.4667 41.1333 58.6C32.3333 78.4667 23 93.1333 17 95.9333C11.5333 98.6 5.66665 97.4 5.66665 93.6667C5.66665 92.2 5.13331 91 4.59998 91C2.19998 91 0.333313 94.4667 0.333313 99C0.333313 106.067 4.99998 110.067 13 109.933C28.0666 109.8 39.4 94.4667 52.3333 57C63.4 24.7333 66.3333 18.7333 73.6667 11.8L80.2 5.66667H59.2666C41.9333 5.66667 37.5333 6.06667 33.6666 8.06667Z" fill="#0864FF"/>
<path d="M274.467 40.3333C265.933 43 260.867 52.4667 264.333 59.1333C265.267 60.8667 268.2 64.7333 271 67.6667C279.133 76.2 279.533 82.6 272.333 86.3333C267.4 88.8667 265 88.8667 262.333 86.0667C260.733 84.6 260.333 82.7333 261 79.4C261.667 75.4 261.533 75 258.6 75C254.2 75 251.4 81.4 253.667 85.6667C255.533 89.1333 262.6 92.3333 268.333 92.3333C278.467 92.3333 284.733 89.4 292.733 81.2667L300.333 73.4V77.5333C300.333 80.0667 301.667 83.1333 304.067 85.6667C310.6 93.1333 323.667 92.4667 333.267 83.9333C339.533 78.4667 348.333 65.2667 348.333 61.4C348.333 58.8667 347.667 59.4 345 64.2C337.267 77.6667 327.8 85.5333 319.4 85.6667C313 85.6667 310.733 83.1333 310.733 75.6667C310.733 66.6 311.667 65.6667 320.467 65.6667C329.4 65.6667 334.733 63.5333 338.867 58.2C346.6 48.3333 336.6 38.7333 322.733 42.8667C315.933 45 307.667 52.6 303.667 60.2C299.933 67.6667 290.467 80.4667 287.533 82.0667C285.8 83.1333 285.667 82.8667 286.867 80.6C287.667 79 288.333 75.5333 288.333 72.8667C288.333 68.4667 287.4 67 280.333 60.4667C271.933 52.6 270.6 49 274.467 45C277.667 41.8 284.867 42.8667 285.4 46.6C285.667 48.4667 285 49.6667 283.133 50.3333C279.8 51.4 279.4 54.3333 282.467 55.5333C285.8 56.7333 286.867 56.4667 289.667 53.6667C293 50.3333 293.133 43.5333 289.933 41.8C286.2 39.8 278.6 39 274.467 40.3333ZM335 49.5333C335 57.1333 319 67.1333 315.667 61.6667C313.4 58.0667 325.4 45.6667 331.133 45.6667C334.467 45.6667 335 46.2 335 49.5333Z" fill="#0864FF"/>
<path d="M362.733 39.9333C360.733 40.2 357.267 42.2 355 44.3333C351.667 47.4 351 49.1333 351 54.0667C351 59.2667 351.8 60.8667 355.8 65.2667C365.533 75.5333 366.6 79.5333 361 85C357.133 89 353.267 89.2667 349.667 85.6667C347.533 83.5333 347.267 82.3333 348.333 79.6667C350.067 75 350.067 75 346.6 75C342.6 75 340.333 77.4 340.333 81.4C340.333 86.4667 342.733 89.4 348.067 91C358.867 93.9333 368.6 91.8 376.6 84.6C383.133 78.7333 392.333 65 392.333 61.2667C392.333 59.5333 390.333 61.6667 386.867 67.1333C378.6 80.0667 369.8 88.6 374.6 79C377.667 72.7333 375.8 67.8 367.533 60.7333C359.267 53.5333 357.533 49.5333 361 45.6667C363.8 42.6 369.933 42.2 372.333 45C373.667 46.6 373.267 47.5333 370.467 50.0667C367.4 53 367.267 53.5333 369 55C371.933 57.4 377.267 54.7333 379 50.2C380.6 45.9333 377.667 40.3333 373.933 40.3333C372.733 40.3333 370.467 40.0667 369 39.8C367.533 39.5333 364.733 39.6667 362.733 39.9333Z" fill="#0864FF"/>
<path d="M152.333 41.9333C149.8 42.6 146.2 44.3333 144.333 45.5333C138.067 49.9333 137.8 49.9333 138.067 46.0667C138.333 42.6 137.933 42.3333 132.867 41.9333L127.4 41.5333L126.467 48.2C124.867 60.3333 111.667 80.3333 105.4 80.3333C100.733 80.3333 104.067 66.7333 112.867 50.2L117.4 41.6667H113.4C107 41.6667 104.867 43.6667 96.3333 57.5333C83.9333 77.8 73.5333 85.5333 72.6 75.5333C72.0666 69.6667 81 52.6 86.8666 48.7333C91.8 45.4 97.5333 44.7333 100.2 47.2667C101.533 48.7333 101.667 48.4667 100.867 46.6C98.7333 41 87.2666 39.9333 78.8666 44.6C65.9333 51.8 55.9333 79.2667 63.1333 87.9333C65.5333 90.6 72.6 89.9333 77.6666 86.4667C81.8 83.6667 85.1333 79.8 91.4 70.6C92.8666 68.6 93 69.6667 92.6 77.4C92.2 84.7333 92.4666 87 94.3333 88.8667C97.8 92.3333 102.6 90.6 110.067 83.2667L116.467 77L114.333 82.8667C113.267 86.0667 112.333 88.8667 112.333 89.1333C112.333 89.4 114.867 89.6667 118.067 89.6667H123.8L128.067 76.4667C134.333 57.4 142.333 47 150.733 47C155 47 154.6 49.8 147 70.0667C143.4 79.8 140.333 88.3333 140.333 88.8667C140.333 89.4 142.733 89.6667 145.8 89.4L151.267 89L156.2 75.6667C158.867 68.2 162.467 60.0667 164.067 57.4C169 49.4 180.333 43.8 180.333 49.4C180.333 50.7333 178.6 56.8667 176.333 63C171.4 77 171 87.5333 175 89.6667C180.067 92.3333 188.6 87.6667 195.133 78.6L199 73.2667V80.0667C199 85.8 199.533 87.2667 202.2 89C206.867 92.0667 211.667 90.3333 219.4 82.8667C223.133 79.2667 226.333 76.3333 226.6 76.3333C226.867 76.3333 227 78.7333 227 81.5333C227 88.2 230.067 91.5333 234.867 90.3333C241.933 88.6 259.8 67.4 258.733 61.9333C258.467 60.4667 257.133 61.6667 254.6 65.9333C249.933 73.9333 243.533 80.3333 240.067 80.3333C237.667 80.3333 237.4 79.8 238.067 74.8667C238.467 71.8 241.8 63.1333 245.533 55.5333L252.2 41.6667H247C241 41.6667 240.467 42.3333 229.667 61.9333C225.8 69 220.867 76.7333 218.867 79C214.067 84.2 210.467 83.9333 209.933 78.2C209.533 73.6667 214.733 58.7333 219.667 50.0667C221.533 47 223 44.2 223 43.6667C223 43.2667 220.467 43 217.4 43.2667L211.667 43.6667L204.733 57C195.267 75.4 185.933 84.7333 183.4 78.3333C183 77.1333 184.867 70.0667 187.533 62.4667C190.2 55 192.333 47.5333 192.333 45.9333C192.333 38.8667 181.133 39.5333 169.8 47.2667C163.933 51.4 163.933 51.4 164.733 48.2C165.133 46.4667 165.133 44.3333 164.6 43.4C163.133 41.1333 157.533 40.3333 152.333 41.9333Z" fill="#0864FF"/>
</g>
<defs>
<filter id="filter0_ii_3_3" x="-1.66669" y="-1.66666" width="602.034" height="113.603" filterUnits="userSpaceOnUse" color-interpolation-filters="sRGB">
<feFlood flood-opacity="0" result="BackgroundImageFix"/>
<feBlend mode="normal" in="SourceGraphic" in2="BackgroundImageFix" result="shape"/>
<feColorMatrix in="SourceAlpha" type="matrix" values="0 0 0 0 0 0 0 0 0 0 0 0 0 0 0 0 0 0 127 0" result="hardAlpha"/>
<feOffset dx="-2" dy="-2"/>
<feGaussianBlur stdDeviation="2.5"/>
<feComposite in2="hardAlpha" operator="arithmetic" k2="-1" k3="1"/>
<feColorMatrix type="matrix" values="0 0 0 0 0 0 0 0 0 0.152174 0 0 0 0 0.408333 0 0 0 1 0"/>
<feBlend mode="normal" in2="shape" result="effect1_innerShadow_3_3"/>
<feColorMatrix in="SourceAlpha" type="matrix" values="0 0 0 0 0 0 0 0 0 0 0 0 0 0 0 0 0 0 127 0" result="hardAlpha"/>
<feOffset dx="2" dy="2"/>
<feGaussianBlur stdDeviation="2.5"/>
<feComposite in2="hardAlpha" operator="arithmetic" k2="-1" k3="1"/>
<feColorMatrix type="matrix" values="0 0 0 0 0.304167 0 0 0 0 0.563343 0 0 0 0 1 0 0 0 1 0"/>
<feBlend mode="normal" in2="effect1_innerShadow_3_3" result="effect2_innerShadow_3_3"/>
</filter>
</defs>
</svg>
